# xmcd
#
# Track frame offsets:
#	222
#	9857
#	24420
#	35312
#	50342
#	71917
#	86025
#	98565
#	113370
#	125000
#
# Disc length: 1852 seconds
#
# Revision: 1
# Processed by: cddbd v1.5.1PL2 Copyright (c) Steve Scherf et al.
# Submitted via: audiograbber 1.83.01
#
DISCID=71073a0a
DTITLE=Perrys - Grace
DYEAR=1993
DGENRE=Southern Gospel
TTITLE0=Grace
TTITLE1=The Blood Found Me
TTITLE2=He Can't Follow Me Home
TTITLE3=He Didn't Have To Go
TTITLE4=Look What I'm Trading For A Mansion
TTITLE5=The Rock Of Ages
TTITLE6=I'm Going Up
TTITLE7=Mother's Day
TTITLE8=Consider The Price
TTITLE9=I'm Outa Here
EXTD=
EXTT0=
EXTT1=
EXTT2=
EXTT3=
EXTT4=
EXTT5=
EXTT6=
EXTT7=
EXTT8=
EXTT9=
PLAYORDER=
